<svg width="21" height="18" viewBox="0 0 21 18" fill="none" xmlns="http://www.w3.org/2000/svg">
<path d="M18.9698 4.44416C19.2122 9.0639 16.8569 13.4329 12.8644 15.7697C8.87188 18.1064 3.90922 18.0205 0 15.5469C2.21583 15.6926 4.4074 15.0148 6.15408 13.6436C4.45561 13.4412 3.02432 12.2813 2.47432 10.6617C3.13114 10.7672 3.80328 10.7239 4.44109 10.5348C2.40726 10.1521 0.907341 8.41535 0.824773 6.34748C1.38897 6.57368 1.99359 6.68165 2.60121 6.6647C0.851762 5.31132 0.364873 2.87688 1.45921 0.954734C3.66101 3.67383 6.91118 5.33349 10.4048 5.52271C9.80649 3.57832 10.6697 1.48257 12.4639 0.52362C14.258 -0.435334 16.4801 0.0113747 17.7644 1.58918C18.7364 1.41472 19.6639 1.04804 20.4924 0.510626C20.1768 1.54022 19.4709 2.4055 18.5257 2.9215C19.3848 2.83456 20.2221 2.59839 21 2.22362C20.6271 3.19307 19.902 3.98607 18.9698 4.44416Z" fill="#AAAAAA"/>
</svg>
